<?xml version="1.0" encoding="UTF-8" standalone="no"?>
<!-- Generator: Adobe Illustrator 25.4.1, SVG Export Plug-In . SVG Version: 6.00 Build 0)  -->

<svg
   xmlns:dc="http://purl.org/dc/elements/1.1/"
   xmlns:cc="http://creativecommons.org/ns#"
   xmlns:rdf="http://www.w3.org/1999/02/22-rdf-syntax-ns#"
   xmlns:svg="http://www.w3.org/2000/svg"
   xmlns="http://www.w3.org/2000/svg"
   xmlns:sodipodi="http://sodipodi.sourceforge.net/DTD/sodipodi-0.dtd"
   xmlns:inkscape="http://www.inkscape.org/namespaces/inkscape"
   version="1.1"
   id="Layer_1"
   x="0px"
   y="0px"
   viewBox="0 0 1600 1600"
   style="enable-background:new 0 0 1600 1600;"
   xml:space="preserve"
   sodipodi:docname="Art101_Splash.svg"
   inkscape:version="0.92.5 (2060ec1f9f, 2020-04-08)"><metadata
   id="metadata21"><rdf:RDF><cc:Work
       rdf:about=""><dc:format>image/svg+xml</dc:format><dc:type
         rdf:resource="http://purl.org/dc/dcmitype/StillImage" /></cc:Work></rdf:RDF></metadata><defs
   id="defs19" /><sodipodi:namedview
   pagecolor="#ffffff"
   bordercolor="#666666"
   borderopacity="1"
   objecttolerance="10"
   gridtolerance="10"
   guidetolerance="10"
   inkscape:pageopacity="0"
   inkscape:pageshadow="2"
   inkscape:window-width="1848"
   inkscape:window-height="1016"
   id="namedview17"
   showgrid="false"
   inkscape:zoom="0.62180649"
   inkscape:cx="798.8755"
   inkscape:cy="886.84374"
   inkscape:window-x="72"
   inkscape:window-y="27"
   inkscape:window-maximized="1"
   inkscape:current-layer="Layer_1" />
<style
   type="text/css"
   id="style2">
	.st0{fill:#231F20;}
	.st1{fill:#F6F6F6;}
	.st2{fill:#F15E4C;}
	.st3{fill:#12B276;}
	.st4{fill:#E5B223;}
</style>
<path
   d="M 0 0 L 0 1600 L 1600 1600 L 1600 0 L 0 0 z M 359.40039 280 L 488.5 280 L 647.19922 761.59961 L 509.5 761.59961 L 491.69922 704.19922 L 354.69922 704.19922 L 337 761.59961 L 200 761.59961 L 359.40039 280 z M 667 280 L 841.5 280 C 962.1 280 1026.5996 358.49922 1026.5996 450.19922 C 1026.5996 512.89922 1000.3008 569.00078 946.30078 599.30078 L 1037.8008 761.59961 L 883 761.59961 L 815.90039 626.09961 L 804.59961 626.09961 L 804.59961 761.59961 L 667 761.59961 L 667 280 z M 1046.4004 280 L 1400 280 L 1400 407.30078 L 1290.6992 407.30078 L 1290.6992 761.59961 L 1159 761.59961 L 1159 407.30078 L 1046.4004 407.30078 L 1046.4004 280 z M 804.59961 405.40039 L 804.59961 501.09961 L 834.90039 501.09961 C 861.20039 501.09961 885.59961 485.20039 885.59961 452.90039 C 885.59961 421.90039 861.20039 405.40039 834.90039 405.40039 L 804.59961 405.40039 z M 423.90039 483.19922 L 392.30078 582.80078 L 454.19922 582.80078 L 423.90039 483.19922 z "
   id="rect4"
   style="fill:#231f20;fill-opacity:1" />
<path
   class="st1"
   d="M559.2,1313.4H200v-127.6h112.2v-172.6c-15.2,19.8-40.9,29.1-71.3,29.1h-6.6V912.7h3.3  c63.4,0,79.2-47.6,79.2-82h134v355.1h108.4V1313.4z M977.5,1150.7c0,98.5-70.6,169.3-178.2,169.3c-106.3,0-176.9-72.1-176.9-169.3  V993.4c0-98.5,70.6-169.3,178.2-169.3c106.3,0,176.9,72.1,176.9,169.3V1150.7z M1400,1313.4h-359.2v-127.6H1153v-172.6  c-15.2,19.8-40.9,29.1-71.3,29.1h-6.6V912.7h3.3c63.4,0,79.2-47.6,79.2-82h134v355.1H1400V1313.4z"
   id="path6" />
<g
   id="g12">
	
	
</g>

</svg>