<svg xmlns="http://www.w3.org/2000/svg" viewBox="0 0 1390.33 424.98"><defs><style>.cls-1{fill:#231f20;}.cls-2{fill:#6abd45;}</style></defs><g id="Layer_2" data-name="Layer 2"><g id="Layer_1-2" data-name="Layer 1"><path class="cls-1" d="M0,.19H124.55L250.86,198.62V.19H371.92V425H256.68L121.06,211.42V425H0Z"/><path class="cls-1" d="M392.87.19h245V111.92h-124v43.64h124V267.29h-124V425H392.87Z"/><path class="cls-1" d="M757.22,112.5H657.7V.19H970.25V112.5H873.63V425H757.22Z"/><path class="cls-2" d="M1282.49,47.75a53.84,53.84,0,0,0-20.31-36.16A54.45,54.45,0,0,0,1228.7,0h0a53.9,53.9,0,0,0-42.62,20.69L978.48,275.22l-46.29-90.4c-5.39-7.53-11.88-15-20.21-19.66a54.15,54.15,0,0,0-54.06.75A54.17,54.17,0,0,0,839,240.17l86.64,158.31a54.18,54.18,0,0,0,43.07,26.39c1.16.07,2.35.11,3.53.11a53.86,53.86,0,0,0,42.59-20.69L1271.28,87.67A53.8,53.8,0,0,0,1282.49,47.75Z"/><path class="cls-1" d="M1169.16,134h113.49v51.79c12.81-31.42,35.51-51.79,74.5-51.79h33.18V252.74h-69.84c-33.18,0-37.25,3.49-37.25,40.15V425H1169.16Z"/></g></g></svg>