<?xml version="1.0" encoding="UTF-8" standalone="no"?>
<!-- Generator: Adobe Illustrator 25.4.1, SVG Export Plug-In . SVG Version: 6.00 Build 0)  -->

<svg
   xmlns:dc="http://purl.org/dc/elements/1.1/"
   xmlns:cc="http://creativecommons.org/ns#"
   xmlns:rdf="http://www.w3.org/1999/02/22-rdf-syntax-ns#"
   xmlns:svg="http://www.w3.org/2000/svg"
   xmlns="http://www.w3.org/2000/svg"
   xmlns:sodipodi="http://sodipodi.sourceforge.net/DTD/sodipodi-0.dtd"
   xmlns:inkscape="http://www.inkscape.org/namespaces/inkscape"
   version="1.1"
   x="0px"
   y="0px"
   viewBox="0 0 1360 1600"
   xml:space="preserve"
   id="svg43"
   sodipodi:docname="rmutt.svg"
   width="1360"
   height="1600"
   inkscape:version="0.92.5 (2060ec1f9f, 2020-04-08)"><metadata
   id="metadata49"><rdf:RDF><cc:Work
       rdf:about=""><dc:format>image/svg+xml</dc:format><dc:type
         rdf:resource="http://purl.org/dc/dcmitype/StillImage" /><dc:title /></cc:Work></rdf:RDF></metadata><defs
   id="defs47" /><sodipodi:namedview
   pagecolor="#ffffff"
   bordercolor="#666666"
   borderopacity="1"
   objecttolerance="10"
   gridtolerance="10"
   guidetolerance="10"
   inkscape:pageopacity="0"
   inkscape:pageshadow="2"
   inkscape:window-width="1848"
   inkscape:window-height="1016"
   id="namedview45"
   showgrid="false"
   inkscape:zoom="1.4289716"
   inkscape:cx="453.0013"
   inkscape:cy="896.9893"
   inkscape:window-x="72"
   inkscape:window-y="27"
   inkscape:window-maximized="1"
   inkscape:current-layer="svg43" />
<g
   id="Layer_5">
</g>

<g
   id="g877"
   transform="translate(-131.05303,-2.4904957)"><g
     id="Layer_4">
	<path
   inkscape:connector-curvature="0"
   id="path3"
   d="m 553.446,1462.825 c 8.177,2.396 16.374,4.634 24.592,6.732 74.949,18.406 154.086,27.627 230.862,27.377 6.18,0.05 12.358,0.067 18.533,0.047 7.552,0 15.117,-0.027 22.678,-0.056 22.689,-0.086 45.348,-0.202 67.893,0.259 10.122,0 20.244,0 30.597,0 9.725,0 19.668,0 29.989,0 0.42,0.525 0.836,1.058 1.261,1.571 8.089,7.651 13.61,16.872 21.454,24.776 0.685,0.701 1.362,1.403 2.023,2.12 0.664,0.717 1.312,1.452 1.949,2.201 0.512,0.6 1.018,1.21 1.531,1.833 1.748,1.614 3.366,3.348 4.925,5.115 1.559,1.765 3.059,3.562 4.56,5.302 2.959,3.698 6.234,6.552 9.818,8.634 0.897,0.521 1.812,0.992 2.746,1.416 32.698,6.048 67.665,-1.329 98.375,-11.557 0.972,-0.45 1.939,-0.913 2.899,-1.392 2.877,-1.439 5.685,-3.026 8.354,-4.832 0.859,-0.888 1.646,-1.817 2.342,-2.793 2.089,-2.93 3.356,-6.268 3.275,-10.089 -0.171,-0.71 -0.392,-1.432 -0.66,-2.17 -0.273,-0.735 -0.593,-1.486 -0.963,-2.251 -0.417,-1.109 -0.899,-2.213 -1.434,-3.303 -1.612,-3.269 -3.719,-6.415 -6.068,-9.227 -0.721,-1.23 -1.45,-2.46 -2.185,-3.688 -4.83,-8.069 -9.855,-16.052 -13,-24.05 21.14,-5.852 42.892,-16.423 61.992,-21.299 3.746,-1.459 7.421,-2.995 10.999,-4.585 3.58,-1.589 7.065,-3.229 10.435,-4.893 11.557,-5.335 22.872,-11.121 34.003,-17.256 44.524,-24.537 86.145,-54.617 127.581,-83.385 8.949,-7.274 17.904,-15.572 26.335,-24.66 20.507,-19.932 37.568,-48.045 44.401,-77.113 0.625,-2.642 1.166,-5.292 1.636,-7.944 5.345,-26.023 -0.176,-51.842 -13.783,-73.279 -1.524,-2.12 -3.08,-4.218 -4.594,-6.32 -3.341,-4.643 -9.823,-12.079 -11.537,-17.358 -0.592,-1.825 -0.494,-3.49 -0.226,-5.104 8.473,-4.958 17.548,-8.705 26.103,-13.473 6.941,-3.868 14.469,-3.66 21.867,-6.686 9.519,-3.895 19.783,-14.735 14.709,-24.519 -0.754,-1.454 -1.846,-2.884 -3.334,-4.269 -1.835,-1.708 -5.325,-3.445 -6.231,-5.804 -0.548,-1.428 -0.557,-2.999 -0.559,-4.529 -0.01,-6.929 -0.016,-13.857 -0.023,-20.786 -0.01,-5.452 1.651,-12.638 0.267,-17.833 -1.576,-5.913 -7.88,-8.978 -12.565,-11.915 -10.384,-6.509 -21.022,-12.528 -28.102,-22.937 -1.955,-2.874 -3.518,-5.949 -4.65,-9.239 -1.27,-3.69 -2.423,-6.347 -5.202,-9.195 -2.529,-2.592 -5.437,-4.678 -9.07,-5.27 -2.527,-0.412 -4.992,-0.032 -7.474,0.33 -0.208,-33.832 -7.557,-67.874 -19.381,-99.467 C 1346.927,805.303 1302.588,740.206 1252.016,684.623 1202.621,630.334 1145.969,583.165 1097.537,527.956 1046.944,470.283 1009.392,403.209 978.918,333.05 957.362,283.425 941.124,231.523 917.127,182.963 894.665,137.51 863.969,90.731 815.541,70.28 802.437,64.746 788.735,61.799 774.792,59.227 760.135,56.522 745.359,54.401 730.49,53.319 c -24.644,-1.793 -49.61,-0.851 -73.755,4.677 -39.159,8.966 -72.428,31.465 -95.809,64.076 -10.494,14.637 -21.702,28.876 -32.591,42.827 -11.759,15.065 -22.74,30.743 -32.934,46.911 -3.451,5.474 -6.904,11.205 -9.233,17.259 -2.843,7.388 -5.284,14.969 -7.681,22.513 -4.724,14.868 -8.477,30.036 -11.931,45.245 -6.958,30.637 -12.303,61.61 -17.664,92.558 -5.494,31.718 -12.926,63.002 -20.319,94.322 -4.095,17.349 -8.186,34.7 -12.003,52.113 -3.314,15.118 -5.846,30.444 -10.28,45.294 -4.285,14.351 -12.252,27.499 -18.768,41.016 -14.405,29.88 -28.742,59.813 -41.6,90.404 -7.887,18.765 -12.249,38.622 -19.487,57.542 -6.291,16.444 -27.807,88.64 -32.267,107.274 -4.665,19.492 -8.843,39.147 -11.135,59.078 -2.228,19.383 -4.462,38.765 -6.697,58.147 -1.884,16.343 -0.564,36.02 -10.072,49.978 -15.182,22.286 -44.406,26.616 -67.967,35.177 -8.759,3.202 -17.642,7.033 -25.176,12.619 -14.851,11.01 -12.073,32.084 -13.376,48.848 -0.509,6.543 -0.969,12.345 -4.525,17.948 -4.133,6.514 -6.421,12.104 -0.885,18.841 6.085,7.405 13.313,13.997 18.173,22.351 7.318,12.578 3.796,25.102 3.706,38.485 -0.281,10.547 -5.44,22.445 -3.318,32.909 3.584,17.669 29.457,27.576 45.484,22.718 11.208,-3.397 21.653,-4.755 31.599,-3.379 3.315,0.459 6.575,1.223 9.788,2.289 10.42,2.806 21.462,8.339 32.756,8.522 3.86,0.639 7.769,1.104 11.666,1.538 2.922,0.325 5.827,0.642 8.711,0.977 2.27,8.238 10.62,15.568 15.629,22.083 7.443,9.681 15.41,18.808 24.271,27.211 5.467,5.185 11.065,10.197 16.784,15.04 40.034,33.895 86.032,59.465 135.127,77.911"
   style="fill:#fbfbfb;fill-opacity:1" />
</g><g
     id="Layer_3">
	<g
   id="g24">
		<path
   inkscape:connector-curvature="0"
   id="path6"
   d="m 1019.528,1119.665 c 0.62,-0.051 0.855,-0.073 0,0 z"
   style="fill:#231f20;stroke:#231f20;stroke-width:0.25;stroke-miterlimit:10" />
		<path
   inkscape:connector-curvature="0"
   id="path8"
   d="m 497.558,1053.565 c 20.263,13.448 42.098,24.626 63.159,34.189 59.952,27.222 124.956,42.307 190.27,48.988 119.497,12.222 245.639,15.13 362.391,-16.925 38.96,-10.697 76.971,-26.683 109.799,-50.545 29.462,-21.416 47.56,-58.926 49.092,-95.48 1.499,-35.76 -9.653,-70.743 -24.586,-102.813 -11.694,-25.113 -27.405,-48.063 -44.204,-70.012 -18.035,-23.563 -37.802,-45.745 -58.363,-67.111 -41.315,-42.933 -85.833,-82.6 -127.825,-124.849 -41.666,-41.92 -81.278,-86.793 -110.762,-138.333 -7.534,-13.17 -14.412,-26.717 -20.528,-40.606 -7.493,-17.017 -15.746,-33.501 -22.033,-51.035 -6.691,-18.662 -12.69,-37.561 -18.83,-56.409 -6.068,-18.626 -11.836,-37.583 -19.899,-55.46 -7.76,-17.205 -16.535,-34.405 -26.283,-50.568 -4.484,-7.434 -10.166,-13.122 -16.358,-19.113 -23.816,-23.043 -58.565,-29.828 -90.129,-19.816 -32.649,10.357 -50.885,35.602 -65.248,65.072 -8.125,16.67 -13.918,34.494 -18.602,52.41 -9.586,36.664 -13.766,74.343 -20.384,111.584 -6.46,36.354 -15.432,72.22 -28.547,106.767 -15.613,40.826 -34.692,80.223 -53.913,119.435 -19.409,39.597 -39.236,79.045 -56.477,119.658 -15.509,36.533 -29.37,74.408 -35.706,113.745 -5.505,34.179 -4.985,70.144 8.363,102.531 14.771,35.839 43.175,63.175 75.603,84.696 z m 734.971,-23.933 c -18.788,31.714 -59.072,50.485 -92.246,63.222 -39.963,15.344 -81.568,22.659 -124.051,26.321 -52.029,4.484 -104.324,5.856 -156.516,4.116 -76.447,-2.549 -155.871,-8.234 -229.032,-31.543 -42.938,-13.68 -84.341,-33.599 -120.086,-61.283 -17.821,-13.803 -33.625,-29.52 -48.012,-46.852 -7.438,-8.96 -12.807,-16.303 -16.867,-27.47 -1.277,-3.512 -11.058,-30.755 -8.041,-32.856 46.549,-32.412 98.846,-56.254 153.27,-71.917 58.497,-16.836 119.426,-24.858 180.238,-25.37 60.527,-0.51 121.143,6.558 179.928,21.029 55.674,13.705 109.84,34.177 159.638,62.783 23.608,13.561 44.673,27.926 65.756,45.509 20.362,16.981 36.463,33.092 52.894,53.838 2.759,3.484 5.422,7.042 8.04,10.632 -0.196,0.464 -0.369,0.932 -0.572,1.395 -1.277,2.913 -2.73,5.727 -4.341,8.446 z M 455.383,799.865 c 13.4,-39.722 31.016,-77.911 49.184,-115.628 19.006,-39.456 38.932,-78.473 57.098,-118.331 8.419,-18.472 16.445,-37.129 23.698,-56.094 13.318,-35.083 22.357,-71.525 28.845,-108.455 6.445,-36.691 10.644,-73.786 20.086,-109.895 4.619,-17.668 10.318,-35.244 18.266,-51.712 6.28,-13.014 13.246,-27.568 25.39,-35.839 12.066,-8.218 26.736,-12.627 41.336,-12.163 11.815,0.376 23.476,3.942 33.596,10.039 10.569,6.368 15.989,14.293 22.013,24.676 4.907,8.459 9.353,17.186 13.848,25.868 8.738,16.877 16.021,33.975 22.191,51.951 6.341,18.472 12.177,37.112 18.314,55.652 5.913,17.864 11.786,35.871 19.792,52.924 13.355,28.447 26.118,56.716 42.922,83.357 15.518,24.602 33.207,47.764 52.164,69.796 38.264,44.472 81.442,84.307 123.722,124.848 42.078,40.347 83.69,81.689 118.322,128.792 15.335,20.856 28.896,42.394 39.283,66.145 7.49,17.127 13.705,34.912 17.474,53.251 4.517,21.982 5.317,44.031 -0.258,65.359 -30.372,-40.164 -69.304,-73.312 -111.717,-100.159 -49.289,-31.2 -103.839,-53.888 -159.875,-69.68 -59.102,-16.656 -120.354,-25.474 -181.709,-27.001 -61.471,-1.53 -123.298,4.521 -183.022,19.357 -58.521,14.538 -115.278,37.428 -165.946,70.386 -1.446,0.941 -2.869,1.917 -4.304,2.874 -0.138,-34.058 8.437,-68.155 19.287,-100.318 z"
   style="fill:#231f20;stroke:#231f20;stroke-width:0.25;stroke-miterlimit:10" />
		<path
   inkscape:connector-curvature="0"
   id="path10"
   d="m 607.235,703.984 c 6.762,-0.434 11.875,-6.554 11.386,-13.667 -0.488,-7.113 -6.432,-12.523 -13.234,-12.086 -6.801,0.437 -11.849,6.552 -11.319,13.663 0.53,7.11 6.405,12.524 13.167,12.09 z"
   style="fill:#231f20;stroke:#231f20;stroke-width:0.25;stroke-miterlimit:10" />
		<path
   inkscape:connector-curvature="0"
   id="path12"
   d="m 585.193,753.448 c 6.762,-0.434 11.875,-6.554 11.42,-13.669 -0.455,-7.116 -6.306,-12.531 -13.068,-12.097 -6.762,0.434 -11.875,6.554 -11.42,13.669 0.455,7.115 6.306,12.531 13.068,12.097 z"
   style="fill:#231f20;stroke:#231f20;stroke-width:0.25;stroke-miterlimit:10" />
		<path
   inkscape:connector-curvature="0"
   id="path14"
   d="m 634.507,745.97 c 6.762,-0.434 11.875,-6.554 11.42,-13.669 -0.455,-7.115 -6.306,-12.531 -13.068,-12.097 -6.762,0.434 -11.875,6.554 -11.42,13.669 0.456,7.116 6.307,12.531 13.068,12.097 z"
   style="fill:#231f20;stroke:#231f20;stroke-width:0.25;stroke-miterlimit:10" />
		<path
   inkscape:connector-curvature="0"
   id="path16"
   d="m 571.938,801.438 c 6.762,-0.434 11.875,-6.554 11.42,-13.669 -0.455,-7.116 -6.306,-12.531 -13.068,-12.097 -6.762,0.434 -11.875,6.554 -11.42,13.669 0.455,7.116 6.306,12.531 13.068,12.097 z"
   style="fill:#231f20;stroke:#231f20;stroke-width:0.25;stroke-miterlimit:10" />
		<path
   inkscape:connector-curvature="0"
   id="path18"
   d="m 665.239,784.36 c 6.762,-0.434 11.875,-6.554 11.42,-13.669 -0.455,-7.116 -6.306,-12.531 -13.068,-12.097 -6.762,0.434 -11.875,6.554 -11.42,13.669 0.455,7.115 6.306,12.531 13.068,12.097 z"
   style="fill:#231f20;stroke:#231f20;stroke-width:0.25;stroke-miterlimit:10" />
		<path
   inkscape:connector-curvature="0"
   id="path20"
   d="m 606.609,780.732 c 0.455,7.116 6.306,12.531 13.068,12.097 6.762,-0.434 11.875,-6.554 11.42,-13.669 -0.455,-7.116 -6.306,-12.531 -13.068,-12.097 -6.762,0.434 -11.875,6.554 -11.42,13.669 z"
   style="fill:#231f20;stroke:#231f20;stroke-width:0.25;stroke-miterlimit:10" />
		<path
   inkscape:connector-curvature="0"
   id="path22"
   d="m 1028.738,1258.038 c 0,0 -0.01,10e-4 -0.01,10e-4 0.022,0 0.022,0 0.01,-10e-4 z"
   style="fill:#231f20;stroke:#231f20;stroke-width:0.25;stroke-miterlimit:10" />
	</g>
	<path
   inkscape:connector-curvature="0"
   id="path26"
   d="m 1469.711,1086.923 c -0.754,-1.454 -1.846,-2.884 -3.334,-4.269 -1.835,-1.708 -5.325,-3.445 -6.231,-5.804 -0.548,-1.428 -0.557,-2.999 -0.559,-4.529 -0.01,-6.929 -0.016,-13.857 -0.023,-20.786 -0.01,-5.452 1.651,-12.638 0.267,-17.833 -1.576,-5.913 -7.88,-8.978 -12.565,-11.915 -10.384,-6.509 -21.022,-12.528 -28.102,-22.937 -1.955,-2.874 -3.518,-5.949 -4.65,-9.239 -1.27,-3.69 -2.423,-6.347 -5.202,-9.195 -2.529,-2.592 -5.437,-4.678 -9.07,-5.27 -2.527,-0.412 -4.992,-0.032 -7.474,0.33 -0.208,-33.832 -7.557,-67.874 -19.381,-99.467 C 1346.925,805.3 1302.586,740.203 1252.014,684.62 1202.619,630.331 1145.967,583.162 1097.535,527.953 1046.942,470.28 1009.39,403.206 978.916,333.047 957.36,283.422 941.122,231.52 917.125,182.96 894.663,137.507 863.967,90.728 815.539,70.277 802.435,64.743 788.733,61.796 774.79,59.224 c -14.657,-2.705 -29.433,-4.826 -44.302,-5.908 -24.644,-1.793 -49.61,-0.851 -73.755,4.677 -39.159,8.966 -72.428,31.465 -95.809,64.076 -10.494,14.637 -21.702,28.876 -32.591,42.827 -11.759,15.065 -22.74,30.743 -32.934,46.911 -3.451,5.474 -6.904,11.205 -9.233,17.259 -2.843,7.388 -5.284,14.969 -7.681,22.513 -4.724,14.868 -8.477,30.036 -11.931,45.245 -6.958,30.637 -12.303,61.61 -17.664,92.558 -5.494,31.718 -12.926,63.002 -20.319,94.322 -4.095,17.349 -8.186,34.7 -12.003,52.113 -3.314,15.118 -5.846,30.444 -10.28,45.294 -4.285,14.351 -12.252,27.499 -18.768,41.016 -14.405,29.88 -28.742,59.813 -41.6,90.404 -7.887,18.765 -12.249,38.622 -19.487,57.542 -6.291,16.444 -27.807,88.64 -32.267,107.274 -4.665,19.492 -8.843,39.147 -11.135,59.078 -2.228,19.383 -4.462,38.765 -6.697,58.147 -1.884,16.343 -0.564,36.02 -10.072,49.978 -15.182,22.286 -44.406,26.616 -67.967,35.177 -8.759,3.202 -17.642,7.033 -25.176,12.619 -14.851,11.01 -12.073,32.084 -13.376,48.848 -0.509,6.543 -0.969,12.345 -4.525,17.948 -4.133,6.514 -6.421,12.104 -0.885,18.841 6.085,7.405 13.313,13.997 18.173,22.351 7.318,12.578 3.796,25.102 3.706,38.485 -0.281,10.547 -5.44,22.445 -3.318,32.909 3.584,17.669 29.457,27.576 45.484,22.718 11.208,-3.397 21.653,-4.755 31.599,-3.379 3.315,0.459 6.575,1.223 9.788,2.289 10.42,2.806 21.462,8.339 32.756,8.522 3.86,0.639 7.769,1.104 11.666,1.538 2.922,0.325 5.827,0.642 8.711,0.977 2.27,8.238 10.62,15.568 15.629,22.083 7.443,9.681 15.41,18.808 24.271,27.211 5.467,5.185 11.065,10.197 16.784,15.04 40.034,33.895 86.032,59.465 135.127,77.911 8.016,3.015 16.113,5.839 24.264,8.524 8.141,2.716 16.298,5.266 24.476,7.66 8.177,2.396 16.374,4.634 24.592,6.732 131.789,32.366 271.953,35.154 407.044,37.336 4.021,0.065 16.033,16.878 18.455,19.661 5.664,6.51 11.703,14.466 19.053,19.93 9.896,7.356 20.417,5.923 32.276,5.848 24.669,-0.156 49.068,-5.978 72.367,-13.737 9.825,-4.549 20.396,-12.559 15.716,-25.061 -1.139,-3.042 -25.908,-37.974 -23.155,-38.736 58.519,-16.199 114.995,-40.275 166.583,-72.425 48.509,-30.231 105.308,-70.713 133.725,-121.647 6.844,-12.267 12.217,-25.423 15.437,-39.118 0.625,-2.642 1.166,-5.292 1.636,-7.944 5.345,-26.023 -0.176,-51.842 -13.783,-73.279 -1.524,-2.12 -3.08,-4.218 -4.594,-6.32 -3.341,-4.643 -9.823,-12.079 -11.537,-17.358 -0.592,-1.825 -0.494,-3.49 -0.226,-5.104 8.473,-4.958 17.548,-8.705 26.103,-13.473 6.941,-3.868 14.469,-3.66 21.867,-6.686 9.514,-3.893 19.777,-14.733 14.703,-24.518 z M 424.923,541.239 c 3.36,-15.634 6.969,-31.214 10.628,-46.78 7.286,-30.997 15.411,-61.993 20.882,-93.376 5.397,-30.96 10.56,-61.974 17.112,-92.716 3.249,-15.244 6.84,-30.419 10.983,-45.445 2.093,-7.591 4.535,-15.092 7.063,-22.548 2.51,-7.401 5.172,-14.468 9.011,-21.295 9.567,-17.013 21.755,-32.416 33.677,-47.925 -8.384,20.246 -14.78,41.42 -20.409,62.323 -12.024,44.65 -20.6,90.142 -31.875,134.979 -2.869,11.408 -5.901,22.776 -9.191,34.07 -3.835,13.165 -7.239,26.341 -10.817,39.576 -8.357,30.917 -19.844,60.876 -32.557,90.231 -1.681,3.882 -3.385,7.754 -5.105,11.617 0.198,-0.904 0.404,-1.806 0.598,-2.711 z m -92.74,258.721 c 16.117,-62.231 44.485,-120.48 72.271,-178.132 27.651,-57.372 56.174,-115.095 73.507,-176.633 3.714,-13.187 6.811,-26.462 10.73,-39.589 3.303,-11.064 6.345,-22.206 9.215,-33.39 5.726,-22.312 10.763,-44.793 15.801,-67.269 9.4,-41.94 18.334,-84.524 33.811,-124.736 12.991,-33.754 31.391,-67.45 60.987,-89.185 33.664,-24.722 76.284,-29.723 117.866,-26.41 14.517,1.157 28.949,3.246 43.238,6.042 13.01,2.546 25.848,5.464 37.89,11.173 22.236,10.542 40.586,27.295 55.81,46.443 32.596,40.995 51.967,91.009 70.462,139.5 23.211,60.855 48.598,120.821 82.168,176.791 19.073,31.801 40.679,61.911 65.093,89.815 23.633,27.011 49.289,52.139 75.079,77.057 25.781,24.909 51.755,49.663 76.081,76.021 24.898,26.979 47.462,55.884 67.868,86.414 38.312,57.32 71.041,122.928 75.133,192.933 1.758,30.086 -2.368,61.15 -14.12,89.016 -12.486,29.605 -32.917,54.488 -58.177,74.11 -52.416,40.718 -118.245,59.897 -182.689,71.092 -52.853,9.181 -106.583,14.861 -160.098,18.336 -53.33,3.463 -106.861,4.143 -160.226,1.045 -53.724,-3.119 -107.337,-10.017 -159.678,-22.722 -50.427,-12.241 -99.745,-29.833 -145.162,-55.163 -44.16,-24.629 -84.088,-56.533 -116.231,-95.733 -16.28,-19.854 -30.542,-41.399 -42.449,-64.158 -21.358,-59.396 -19.864,-122.11 -4.18,-182.668 z m 764.332,517.054 c -1.332,-1.933 -2.666,-3.865 -4.004,-5.794 -3.467,-5 -6.57,-10.126 -10.784,-14.516 -4.458,-4.643 -9.334,-8.883 -14.551,-12.649 -0.058,-0.041 4.54,-6.669 4.891,-7.316 1.296,-2.39 1.724,-4.964 1.736,-7.706 1.227,0.879 2.438,1.786 3.613,2.757 13.828,11.422 20.772,28.183 19.099,45.224 z m -797.516,-60.658 c 0,8.661 0,17.322 0,25.983 -2.735,0.071 -5.474,0.163 -8.217,0.21 -4.391,0.075 -8.788,-0.036 -13.144,-0.623 -4.337,-0.584 -8.531,-1.854 -12.728,-3.061 -8.225,-2.365 -16.603,-5.556 -25.255,-5.502 -2.079,0.013 -3.959,0.108 -5.947,0.704 -10.286,3.085 -27.392,4.619 -36.244,-2.76 -4.333,-3.613 -4.449,-11.578 -4.987,-16.457 -1.717,-15.575 1.325,-31.316 -0.956,-46.852 -1.985,-13.517 -9.5,-23.77 -17.248,-34.536 -1.858,-2.582 -6.658,-5.961 -7.594,-8.887 -0.097,-0.303 -0.174,-0.611 -0.219,-0.924 -0.308,-2.136 -0.085,-4.49 -0.013,-6.636 0.164,-4.856 0.572,-9.715 0.98,-14.556 0.544,-6.454 1.249,-12.892 2.024,-19.323 9.537,12.903 15.651,28.247 18.458,44.06 1.642,9.249 3.934,18.414 4.668,27.787 0.658,8.404 -0.909,17.545 0.27,25.806 1.139,7.98 6.263,16.278 14.912,16.753 7.617,0.419 15.971,-1.7 23.53,-2.449 8.112,-0.804 16.308,-0.568 24.467,-0.96 15.599,-0.751 29.853,0.664 44.639,4.072 -2.098,5.52 -1.396,12.447 -1.396,18.151 z m 37.391,-41.516 c -3.243,3.658 -9.673,5.775 -13.823,8.152 -5.536,3.171 -11.826,5.145 -17.159,8.749 -0.278,0.188 -0.518,0.398 -0.773,0.599 -24.174,-5.819 -48.42,-6.404 -73.346,-3.935 -6.207,0.615 -12.721,2.212 -18.96,2.164 -12.72,-0.099 -12.634,-10.258 -12.621,-20.664 0.016,-13.481 -2.023,-25.856 -4.428,-39.024 -2.074,-11.351 -4.807,-21.401 -9.192,-32.075 -2.24,-5.454 -4.712,-11.053 -8.091,-15.915 -1.612,-2.32 -4.379,-4.378 -5.642,-6.924 -2.356,-4.753 0.8,-13.583 4.658,-17.25 9.835,-9.349 25.658,-13.513 38.218,-17.226 11.86,-3.507 23.522,-7.222 34.29,-13.364 1.209,-0.152 2.428,-0.319 3.623,-0.441 3.147,-0.648 6.229,-0.983 9.234,-1.021 7.437,0.4 17.132,2.234 23.172,6.968 5.082,3.983 6.863,11.408 8.927,17.39 0.939,2.722 2.408,5.213 3.626,7.821 1.337,2.865 2.507,5.796 3.692,8.726 4.679,11.568 9.221,23.191 13.737,34.823 5.149,13.265 10.265,26.544 15.502,39.775 2.871,7.254 6.87,14.549 7.553,22.456 0.444,5.15 -0.342,8.123 -2.197,10.216 z m 576.706,217.507 c -2.763,0.102 -5.526,0.205 -8.285,0.285 -1.041,-0.146 -2.081,-0.252 -3.119,-0.111 -0.292,0.039 -0.583,0.117 -0.871,0.211 -63.28,1.602 -125.861,-2.426 -188.936,-8.832 -101.201,-10.278 -201.337,-34.343 -288.313,-88.808 -18.056,-11.307 -36.967,-25.683 -48.119,-44.849 -12.204,-20.974 -12.123,-42.92 -16.105,-65.789 -3.582,-20.572 -17.214,-43.786 -24.794,-63.34 -4.524,-11.671 -9.037,-23.347 -13.648,-34.983 -4.601,-11.609 -9.989,-21.776 -13.872,-33.784 -7.58,-23.442 -12.144,-47.781 -13.164,-72.413 -1.043,-25.181 0.863,-50.474 4.926,-75.328 1.348,-8.249 3.222,-16.425 5.245,-24.56 2.279,22.907 7.296,45.429 15.124,67.201 24.778,47.363 58.591,88.689 100.045,122.364 40.548,32.939 87.174,57.533 135.964,75.764 51.154,19.115 104.765,31.074 158.782,38.498 43.484,5.976 87.356,8.859 131.242,9.485 11.297,3.082 21.898,8.748 30.662,16.533 4.54,4.033 8.612,8.619 13.531,12.177 4.92,3.557 10.988,6.061 16.983,5.131 5.32,-0.825 15.524,-8.964 19.765,-2.858 1.47,2.116 1.57,4.951 0.873,7.433 -2.722,9.69 -10,17.677 -14.202,26.772 -4.326,9.363 -7.292,19.371 -8.707,29.593 -2.809,20.299 0.676,41.58 11.843,58.959 0.421,0.655 0.88,1.281 1.322,1.921 -0.148,-0.112 -0.282,-0.224 -0.347,-0.331 2.786,4.587 5.594,9.218 7.353,14.29 3.469,10.003 -0.156,25.979 -11.178,29.369 z m 23.66,-27.859 c -23.698,-17.311 -29.311,-49.513 -24.279,-76.89 2.628,-14.298 7.169,-27.863 16.001,-39.387 10.347,-13.501 23.171,-25.094 37.639,-34.016 12.968,-7.997 27.13,-15.455 42.289,-19.136 3.52,-0.855 37.974,-6.64 37.567,-2.274 -0.482,5.17 -0.964,10.339 -1.445,15.509 -51.805,4.149 -106.552,34.69 -119.005,88.381 -3.574,15.407 -4.26,32.438 1.112,47.5 2.749,7.708 7.048,14.726 12.386,20.853 -0.77,-0.149 -1.528,-0.325 -2.265,-0.54 z m 8.612,-18.355 c -16.676,-25.008 -7.954,-60.455 8.152,-83.625 13.117,-18.87 33.7,-31.478 55.096,-38.874 8.796,-3.041 17.999,-4.907 27.286,-5.498 7.739,-0.493 16.823,-1.661 23.097,4.115 2.183,2.01 3.614,4.823 3.954,7.774 0.394,3.42 -1.053,7.37 -4.276,8.562 -1.31,0.484 -2.744,0.463 -4.139,0.435 -13.132,-0.261 -25.818,-0.97 -38.332,3.876 -15.784,6.112 -30.283,16.533 -40.633,29.986 -11.397,14.813 -16.966,33.082 -16.348,51.769 0.307,9.286 2.063,18.527 5.153,27.286 1.469,4.163 3.329,7.935 5.446,11.75 1.074,1.934 3.154,8.458 4.646,9.493 -11.275,-7.819 -21.94,-16.31 -29.102,-27.049 z m 103.274,-53.162 c -16.644,3.163 -32.667,19.211 -41.003,33.013 -9.574,15.852 -13.253,35.188 -10.17,53.458 -9.873,-11.071 -17.759,-21.759 -21.882,-36.374 -3.901,-13.828 -3.952,-27.992 -1.154,-42.013 6.009,-30.107 37.159,-55.071 67.092,-56.714 10.683,-0.586 19.863,2.254 28.027,9.113 3.672,3.085 6.947,6.643 9.723,10.557 4.481,6.319 21.013,33.94 25.497,41.098 -1.929,-3.079 -8.558,-5.688 -11.74,-7.209 -4.568,-2.183 -9.388,-3.837 -14.334,-4.91 -9.366,-2.031 -18.985,-1.582 -28.389,-0.294 -0.554,0.078 -1.111,0.169 -1.667,0.275 z m 71.474,70.158 c -3.681,14.754 -14.723,33.196 -31.145,31.617 l 0.39,-0.531 c 17.872,-16.332 23.393,-43.995 19.712,-67.97 9.203,11.065 12.884,23.974 11.043,36.884 z m 1.528,-97.644 c -0.857,2.574 -1.911,5.082 -3.149,7.492 -1.846,3.595 -4.104,6.981 -6.734,10.047 -1.712,1.995 -6.834,5.036 -7.713,7.24 10.276,-25.78 3.472,-55.129 -18.533,-72.413 -1.913,-1.503 11.334,-9.287 13.149,-9.393 5.311,-0.307 10.057,5.479 13.204,9.203 7.572,8.961 12.682,20.873 12.421,32.739 -0.114,5.124 -1.027,10.222 -2.645,15.085 z m 258.054,-191.046 c -4.123,18.706 -10.836,36.941 -9.802,56.432 0.952,17.935 4.293,34.444 -1.117,52.427 -1.469,4.411 -3.153,8.735 -5.022,12.968 -32.137,72.756 -119.555,119.387 -196.33,140.995 -4.73,-0.448 -9.96,0.896 -14.351,-1.054 -7.017,-3.116 -8.101,-13.253 -4.499,-20.044 3.602,-6.791 10.268,-11.27 16.068,-16.308 12.422,-10.791 9.359,-25.987 3.053,-39.243 -2.977,-6.258 -8.196,-10.899 -14.186,-14.194 -6.227,-3.425 -13.392,-2.367 -19.238,-5.915 -4.427,-2.687 -6.771,-7.719 -8.868,-12.46 -2.367,-5.352 -4.786,-10.997 -4.273,-16.828 0.802,-9.121 8.027,-18.057 16.001,-21.988 12.803,-6.311 27.534,-6.876 41.712,-8.483 25.38,-2.877 50.901,-9.734 71.759,-24.508 12.619,-8.939 23.138,-20.479 33.549,-31.922 5.532,-6.081 11.064,-12.161 16.596,-18.242 32.267,-22.036 59.677,-50.545 75.569,-86.823 1.259,-2.873 2.417,-5.772 3.521,-8.685 0.025,21.29 1.014,42.631 -0.142,63.875 z m 10.075,-47.413 c -4.263,-5.316 -1.495,-17.057 -1.55,-23.567 -0.084,-9.755 -0.177,-19.561 1.474,-29.211 1.895,-11.074 2.87,-22.286 3.049,-33.535 1.234,-0.209 2.468,-0.335 3.598,-0.114 2.908,0.569 5.518,3.615 7.199,5.883 1.708,2.304 2.199,5.243 3.295,7.86 1.129,2.698 2.537,5.303 4.158,7.736 6.028,9.045 15.559,16.398 24.986,21.624 4.937,2.737 10.534,5.248 13.957,9.925 2.489,3.401 1.83,8.509 0.178,12.199 -0.689,1.538 -1.633,3.136 -2.978,4.194 -0.635,0.499 -1.231,0.788 -1.998,1 -1.619,0.448 -3.168,0.947 -4.768,1.504 -6.053,2.106 -12.216,3.72 -18.13,6.236 -6.048,2.573 -10.979,6.186 -16.564,9.458 -4.25,2.49 -6.445,2.281 -11.408,1.38 -2.009,-0.366 -3.462,-1.279 -4.498,-2.572 z m 65.175,23.07 c -1.371,2.33 -3.195,4.225 -6.844,5.246 -2.951,0.837 -5.936,1.178 -8.893,1.621 -2.955,0.441 -5.886,0.987 -8.684,2.228 -9.267,4.108 -16.943,10.46 -26.684,13.857 -0.575,-3.588 -1.163,-7.191 -1.352,-10.826 -0.55,-10.589 0.086,-23.299 8.7,-30.755 4.713,-4.08 10.535,-6.762 16.255,-9.099 3.099,-1.266 6.273,-2.265 9.472,-3.243 1.636,-0.5 3.272,-1.002 4.891,-1.555 0.852,-0.291 1.74,-0.548 2.566,-0.905 0.575,-0.189 0.884,-0.301 0.942,-0.339 0.283,-0.053 0.566,-0.101 0.848,-0.161 2.759,-0.649 5.295,-1.948 7.427,-3.735 0.286,11.888 1.124,23.842 2.456,35.621 -0.327,0.659 -0.68,1.331 -1.1,2.045 z"
   style="fill:#231f20;stroke:#231f20;stroke-width:0.75;stroke-miterlimit:10" />
	<g
   id="g40">
		<path
   inkscape:connector-curvature="0"
   id="path28"
   d="m 459.666,1229.533 c 2.092,-0.276 3.905,-1.151 5.884,-2.093 9.381,-4.466 11.193,-12.999 11.214,-23.948 0.005,-2.716 0.672,-5.752 0.26,-8.39 -1.395,-8.926 -8.856,-17.627 -15.583,-21.742 -4.574,-2.799 -8.994,-5.659 -13.254,-5.652 -8.274,-0.987 -12.748,8.664 -15.938,15.624 -1.952,4.259 -3.256,8.727 -4.833,13.154 -2.212,6.209 -5.258,12.409 -7.215,18.802 -1.475,4.818 -3.798,9.01 -5.811,13.714 -2.068,4.832 -3.333,9.702 -5.585,14.383 -2.063,4.289 -4.939,7.667 -6.914,12.114 -2.535,5.707 -3.774,14.526 5.006,16.195 6.034,1.146 9.692,-10.538 11.628,-14.993 1.34,-3.082 3.138,-5.711 4.861,-8.342 3.347,-5.111 5.368,-11.612 7.738,-17.416 1.582,-3.875 3.332,-3.097 6.432,-0.925 -1.132,5.161 -0.8,8.642 -0.398,13.882 0.261,3.405 -0.633,6.687 -1.446,9.884 -0.774,3.043 -1.213,6.018 -2.109,9.026 -1.43,4.799 -3.414,11.812 -2.553,16.917 0.63,3.741 5.334,7.982 9.139,7.225 2.521,-0.501 3.596,-3.029 4.48,-5.452 2.858,-7.831 5.283,-15.808 8.288,-23.597 1.852,-4.8 3.942,-9.367 3.733,-14.793 -0.119,-3.091 -3.226,-11.524 -0.17,-13.486 0.794,-0.509 2.216,0.032 3.146,-0.091 z m -3.775,-19.022 c -3.3,-0.688 -6.245,-6.185 -8.027,-8.999 -1.707,-2.695 -4.371,-6.439 -2.528,-9.566 0.267,-0.453 0.576,-0.831 0.919,-1.142 3.63,-3.294 7.569,-0.4 11.235,1.734 3.696,2.153 6.515,4.605 6.185,9.646 -0.259,3.914 -3.813,9.155 -7.784,8.327 z"
   style="fill:#dc2126" />
		<path
   inkscape:connector-curvature="0"
   id="path30"
   d="m 464.967,1276.86 c -2.604,3.716 -7.33,5.496 -5.112,11.841 0.631,1.806 1.809,4.1 2.861,5.743 0.738,1.153 1.642,1.817 2.478,2.904 0.556,0.723 0.983,1.732 1.484,2.267 8.07,8.628 11.326,-11.117 11.024,-16.715 -0.302,-5.605 -8.087,-9.103 -12.735,-6.04 z"
   style="fill:#dc2126" />
		<path
   inkscape:connector-curvature="0"
   id="path32"
   d="m 516.794,1224.828 c -3.627,4.545 -6.304,7.337 -8.306,13.357 -1.353,4.067 -2.86,8.159 -4.014,12.304 -0.933,3.348 -1.942,6.775 -3.066,10.143 -1.087,3.255 -2.889,5.447 -4.078,8.492 -2.868,7.344 -5.64,14.736 -8.27,22.225 -1.466,4.176 -3.339,6.753 -5.516,10.287 -2.706,4.393 -3.34,8.994 -2.969,14.305 0.24,3.438 3.688,5.547 6.651,7.365 6.505,3.99 10.201,-3.743 13.218,-8.184 5.686,-8.371 10.104,-17.707 15.28,-26.407 3.401,2.081 1.608,12.378 2.012,16.265 0.53,5.1 0.193,10.242 4.843,13.544 11.048,7.844 15.717,-7.403 22.614,-13.178 2.739,-2.294 9.68,-11.588 13.537,-10.059 3.484,1.381 2.869,13.151 3.036,16.148 0.29,5.207 0.901,9.443 2.044,14.542 0.707,3.154 0.743,6.466 1.906,9.576 1.207,3.226 3.667,5.873 4.993,9.04 2.195,5.243 3.413,10.162 7.786,14.149 2.032,1.852 5.227,4.624 8.044,3.66 3.655,-1.251 3.426,-4.884 3.089,-8.049 -0.521,-4.882 -0.964,-9.979 -1.648,-14.912 -0.544,-3.918 -2.016,-7.672 -2.589,-11.585 -0.792,-5.412 0.426,-10.693 0.363,-16.084 -0.185,-15.993 0.339,-32.446 2.764,-48.079 0.843,-5.437 4.98,-14.854 1.457,-20.005 -9.973,-14.576 -33.622,16.674 -40.582,22.587 -1.813,1.54 -6.357,5.428 -8.759,5.517 -5.432,0.2 -5.346,-10.676 -5.737,-14.575 -0.32,-3.2 -1.255,-5.704 -2.231,-8.674 -2.404,-7.315 -8.94,-32.4 -15.872,-23.715 z"
   style="fill:#dc2126" />
		<path
   inkscape:connector-curvature="0"
   id="path34"
   d="m 627.163,1310.017 c -0.852,-0.558 -2.003,-0.601 -3.488,0.226 -2.824,1.573 -5.085,5.392 -6.669,8.142 -2.428,4.213 -6.387,7.858 -8.656,12.291 -2.055,4.017 -4.658,8.33 -5.223,12.989 -0.73,6.019 0.879,13.201 5.954,16.804 2.749,1.952 5.017,4.728 7.996,6.301 3.42,1.807 7.638,2.627 11.325,3.637 7.133,1.953 12.903,0.126 19.331,-2.309 3.219,-1.22 5.631,-2.225 7.93,-4.93 2.879,-3.389 4.107,-7.675 5.755,-11.704 2.833,-6.926 4.333,-14.073 5.399,-21.466 0.483,-3.346 2.368,-8.059 1.776,-11.388 -0.517,-2.91 -2.602,-3.478 -4.88,-4.797 -1.747,-1.012 -1.419,-0.822 -2.585,-2.39 -0.873,-1.175 -0.593,-1.653 -2.058,-2.7 -5.022,-3.585 -6.56,-1.593 -8.251,3.344 -1.292,3.772 -2.227,7.667 -3.248,11.528 -2,7.566 -3.224,24.906 -14.074,24.731 -9.464,-0.153 -11.276,-8.352 -9.77,-16.286 1.016,-5.349 3.806,-9.889 5.1,-15.044 0.595,-2.377 0.122,-5.809 -1.664,-6.979 z"
   style="fill:#dc2126" />
		<path
   inkscape:connector-curvature="0"
   id="path36"
   d="m 704.55,1280.019 c -7.596,-1.297 -17.51,-0.432 -20.765,8.224 -3.215,8.549 0.815,15.455 6.805,21.634 3.507,3.618 4.957,5.895 9.967,7.159 2.682,0.676 5.946,0.85 8.34,2.118 -0.607,2.263 -1.633,4.48 -2.331,6.712 -1.338,4.279 -1.758,8.992 -3.844,13.005 -1.676,3.225 -1.886,5.923 -2.941,9.251 -0.774,2.442 -2.384,4.655 -3.478,6.966 -2.015,4.255 -3.773,10.212 -2.999,14.823 1.241,7.394 9.074,10.936 15.939,8.349 7.502,-2.827 11.068,-8.523 12.73,-16.404 0.824,-3.906 -0.717,-7.421 -0.766,-11.231 -0.02,-1.546 0.544,-3.235 0.721,-4.779 0.334,-2.915 0.547,-5.737 0.973,-8.672 0.495,-3.407 0.59,-8.839 3.072,-11.524 3.299,-3.568 9.431,1.237 12.989,2.446 2.378,0.808 3.193,0.14 4.282,2.759 0.942,2.263 -0.062,6.357 2.663,7.41 2.843,1.099 9.622,-3.271 11.898,-4.986 5.656,-4.262 9.937,-12.699 9.429,-19.805 -0.425,-5.942 -4.57,-7.998 -9.786,-9.299 -5.162,-1.288 -10.262,-2.949 -15.551,-3.548 -2.217,-0.251 -5.007,-10e-4 -7.058,-0.76 -1.273,-0.471 -2.289,-1.721 -3.608,-2.262 -2.447,-1.004 -5.205,-1.007 -7.693,-2.19 -5.501,-2.615 -8.635,-7.229 -13.288,-10.904 -2.81,-2.22 -4.718,-3.84 -5.7,-4.492 z"
   style="fill:#dc2126" />
		<path
   inkscape:connector-curvature="0"
   id="path38"
   d="m 787.052,1285.163 c -4.335,0.452 -8.573,8.719 -9.145,12.628 -0.637,4.347 1.56,7.571 3.994,10.875 4.116,5.587 10.917,10.737 17.089,13.911 3.497,1.798 7.973,2.387 8.411,6.519 0.357,3.363 -1.133,7.061 -2.017,10.239 -1.046,3.761 -1.077,7.511 -1.548,11.395 -0.473,3.896 -1.904,6.289 -3.427,9.729 -1.164,2.629 -0.991,5.728 -1.29,8.557 -0.43,4.071 -5.295,8.758 -4.177,12.543 1.536,5.2 8.946,2.433 12.066,0.377 11.392,-7.506 13.388,-19.646 19.786,-30.445 1.712,-2.89 3.191,-6.076 4.888,-8.882 1.996,-3.301 2.394,-6.209 3.597,-9.878 5.924,1.758 12.28,2.966 18.288,4.769 2.766,0.83 5.865,0.073 8.582,0.677 1.031,0.229 2.478,1.557 3.941,1.838 2.579,0.495 8.249,1.567 9.738,-1.733 1.539,-3.413 -3.361,-5.383 -5.532,-6.287 -6.035,-2.514 -11.17,-4.661 -16.307,-8.544 -3.211,-2.427 -7.104,-3.052 -10.324,-5.198 -2.081,-1.388 -3.861,-3.697 -5.399,-5.684 -3.327,-4.299 -6.875,-6.233 -11.194,-9.367 -4.143,-3.006 -7.633,-6.576 -12.038,-9.211 -6.032,-3.608 -11.991,-6.893 -18.708,-8.638 -4.237,-1.103 -7.047,-0.807 -9.274,-0.19 z"
   style="fill:#dc2126" />
	</g>
</g></g>
</svg>